#!OML:ASF H:\Dans Jumps\Project 1\Capture day 1\Session 1\subject.ASF
:FULLY-SPECIFIED
:DEGREES
399
root 0.233944 17.5731 -6.5446 7.12037 -0.45187 -1.34846
lowerback 1.40707 1.02102 0.141103
upperback 3.78501 1.32411 1.47128
thorax 3.06656 0.64075 1.44982
lowerneck -11.7621 -0.349308 -1.4746
upperneck 34.5003 -0.231415 0.40798
head 13.6189 -0.223071 0.392366
rclavicle 1.98785e-016 3.97569e-016
rhumerus -71.4827 -26.1451 -30.7447
rradius 19.9448
rwrist 49.7278
rhand -13.4758 -26.4178
rfingers 7.12502
rthumb 12.6345 -56.0157
lclavicle 1.98785e-016 3.97569e-016
lhumerus -58.6004 8.5995 69.7554
lradius 16.7855
lwrist 8.21277
lhand -20.1185 1.40346
lfingers 7.12502
lthumb 6.22542 31.292
rfemur -20.0232 -1.13919 20.0331
rtibia 28.059
rfoot -14.945 -3.4687
rtoes 16.7974
lfemur -18.8212 5.12496 -19.3138
ltibia 25.8304
lfoot -12.4305 11.0732
ltoes 1.87686
400
root 0.230106 17.58 -6.54719 7.14301 -0.24044 -1.4099
lowerback 1.39369 1.00814 0.176639
upperback 3.75871 1.30638 1.50053
thorax 3.04744 0.632659 1.45966
lowerneck -11.7596 -0.372624 -1.49431
upperneck 34.507 -0.283565 0.479264
head 13.6221 -0.238277 0.416692
rclavicle -2.08724e-014 2.38542e-015
rhumerus -71.2048 -26.3222 -30.9808
rradius 19.8951
rwrist 49.8714
rhand -13.6975 -26.3405
rfingers 7.12502
rthumb 12.4208 -55.9514
lclavicle -2.08724e-014 2.38542e-015
lhumerus -57.7701 8.50028 69.7364
lradius 17.156
lwrist 9.55264
lhand -21.0151 1.11535
lfingers 7.12502
lthumb 5.35977 31.0276
rfemur -19.9009 -1.24595 20.1164
rtibia 27.7991
rfoot -14.8045 -3.45547
rtoes 16.9173
lfemur -18.7977 5.04097 -19.225
ltibia 25.6541
lfoot -12.3197 10.8521
ltoes 2.14264
401
root 0.226448 17.5869 -6.54932 7.15541 -0.0456193 -1.46779
lowerback 1.38281 0.995281 0.205519
upperback 3.73529 1.28873 1.52851
thorax 3.02978 0.624408 1.47192
lowerneck -11.7545 -0.390451 -1.50423
upperneck 34.5135 -0.325382 0.535951
head 13.6244 -0.249707 0.434996
rclavicle -1.18277e-014 -4.77083e-015
rhumerus -70.8407 -26.5355 -31.2861
rradius 19.8639
rwrist 49.949
rhand -13.861 -26.2462
rfingers 7.12502
rthumb 12.2631 -55.8667
lclavicle -1.18277e-014 -4.77083e-015
lhumerus -56.9203 8.4379 69.6941
lradius 17.5182
lwrist 10.8712
lhand -21.8754 0.712535
lfingers 7.12502
lthumb 4.52908 30.6441
rfemur -19.7681 -1.35395 20.1942
rtibia 27.5372
rfoot -14.6576 -3.42366
rtoes 17.0194
lfemur -18.7598 4.9739 -19.1416
ltibia 25.474
lfoot -12.1967 10.6237
ltoes 2.44026
402
root 0.222964 17.5938 -6.55103 7.15778 0.134514 -1.52122
lowerback 1.37405 0.980464 0.225881
upperback 3.71701 1.26848 1.55589
thorax 3.01613 0.614593 1.48833
lowerneck -11.7555 -0.402074 -1.50621
upperneck 34.5239 -0.354759 0.576787
head 13.6296 -0.256874 0.447424
rclavicle 8.05078e-015 -2.78299e-015
rhumerus -70.3863 -26.7843 -31.6649
rradius 19.8585
rwrist 49.9466
rhand -13.9544 -26.1327
rfingers 7.12502
rthumb 12.1731 -55.7585
lclavicle 8.05078e-015 -2.78299e-015
lhumerus -56.0565 8.43114 69.6136
lradius 17.8662
lwrist 12.1175
lhand -22.6672 0.150243
lfingers 7.12502
lthumb 3.7645 30.0967
rfemur -19.6261 -1.46601 20.2655
rtibia 27.2764
rfoot -14.5074 -3.37554
rtoes 17.1019
lfemur -18.7061 4.92175 -19.0648
ltibia 25.2886
lfoot -12.0665 10.3934
ltoes 2.73563
403
root 0.219682 17.6007 -6.55254 7.15571 0.299055 -1.56207
lowerback 1.36664 0.964206 0.231885
upperback 3.701 1.24649 1.57816
thorax 3.00394 0.603564 1.50752
lowerneck -11.7618 -0.409244 -1.49948
upperneck 34.5389 -0.374885 0.60288
head 13.638 -0.260916 0.453811
rclavicle -2.68359e-015 -1.98785e-014
rhumerus -69.8379 -27.0519 -32.1483
rradius 19.8934
rwrist 49.8149
rhand -13.9785 -26.0009
rfingers 7.12502
rthumb 12.1498 -55.6281
lclavicle -2.68359e-015 -1.98785e-014
lhumerus -55.181 8.48185 69.4933
lradius 18.2009
lwrist 13.2496
lhand -23.3974 -0.61822
lfingers 7.12502
lthumb 3.05935 29.3396
rfemur -19.4835 -1.583 20.3215
rtibia 27.0199
rfoot -14.3549 -3.31422
rtoes 17.1751
lfemur -18.6424 4.8809 -19.0038
ltibia 25.0984
lfoot -11.9326 10.164
ltoes 3.02695
